<mxfile host="app.diagrams.net" modified="2023-06-30T20:49:49.834Z" agent="Mozilla/5.0 (Windows NT 10.0; Win64; x64; rv:109.0) Gecko/20100101 Firefox/114.0" etag="vBhm6SZ6B4qtNAQIi6N9" version="21.5.2" type="github">
  <diagram name="Page-1" id="6133507b-19e7-1e82-6fc7-422aa6c4b21f">
    <mxGraphModel dx="1434" dy="774" grid="1" gridSize="10" guides="1" tooltips="1" connect="1" arrows="1" fold="1" page="1" pageScale="1" pageWidth="1100" pageHeight="850" background="none" math="0" shadow="0">
      <root>
        <mxCell id="0" />
        <mxCell id="1" parent="0" />
        <mxCell id="nESHbapqI25ROE8QuuqQ-1" value="Mediumroom : Room" style="html=1;whiteSpace=wrap;" vertex="1" parent="1">
          <mxGeometry x="70" y="70" width="110" height="50" as="geometry" />
        </mxCell>
        <mxCell id="nESHbapqI25ROE8QuuqQ-2" value="" style="endArrow=diamondThin;endFill=1;endSize=24;html=1;rounded=0;entryX=1;entryY=0.5;entryDx=0;entryDy=0;exitX=0;exitY=0.5;exitDx=0;exitDy=0;" edge="1" parent="1" source="nESHbapqI25ROE8QuuqQ-3" target="nESHbapqI25ROE8QuuqQ-1">
          <mxGeometry width="160" relative="1" as="geometry">
            <mxPoint x="470" y="400" as="sourcePoint" />
            <mxPoint x="630" y="400" as="targetPoint" />
          </mxGeometry>
        </mxCell>
        <mxCell id="nESHbapqI25ROE8QuuqQ-3" value="Spiderman : Show" style="html=1;whiteSpace=wrap;" vertex="1" parent="1">
          <mxGeometry x="360" y="30" width="110" height="50" as="geometry" />
        </mxCell>
        <mxCell id="nESHbapqI25ROE8QuuqQ-4" value="Batman :: Show" style="html=1;whiteSpace=wrap;" vertex="1" parent="1">
          <mxGeometry x="365" y="110" width="110" height="50" as="geometry" />
        </mxCell>
        <mxCell id="nESHbapqI25ROE8QuuqQ-5" value="" style="endArrow=none;html=1;rounded=0;entryX=0;entryY=0.5;entryDx=0;entryDy=0;" edge="1" parent="1" target="nESHbapqI25ROE8QuuqQ-4">
          <mxGeometry width="50" height="50" relative="1" as="geometry">
            <mxPoint x="210" y="90" as="sourcePoint" />
            <mxPoint x="570" y="380" as="targetPoint" />
            <Array as="points" />
          </mxGeometry>
        </mxCell>
        <mxCell id="nESHbapqI25ROE8QuuqQ-6" value="1" style="text;html=1;align=center;verticalAlign=middle;resizable=0;points=[];autosize=1;strokeColor=none;fillColor=none;" vertex="1" parent="1">
          <mxGeometry x="335" y="160" width="30" height="30" as="geometry" />
        </mxCell>
        <mxCell id="nESHbapqI25ROE8QuuqQ-7" value="1" style="text;html=1;align=center;verticalAlign=middle;resizable=0;points=[];autosize=1;strokeColor=none;fillColor=none;" vertex="1" parent="1">
          <mxGeometry x="330" y="70" width="30" height="30" as="geometry" />
        </mxCell>
        <mxCell id="nESHbapqI25ROE8QuuqQ-8" value=": Ticket" style="html=1;whiteSpace=wrap;" vertex="1" parent="1">
          <mxGeometry x="710" y="70" width="110" height="50" as="geometry" />
        </mxCell>
        <mxCell id="nESHbapqI25ROE8QuuqQ-9" value=":Ticket" style="html=1;whiteSpace=wrap;" vertex="1" parent="1">
          <mxGeometry x="740" y="110" width="110" height="50" as="geometry" />
        </mxCell>
        <mxCell id="nESHbapqI25ROE8QuuqQ-10" value=": Child" style="html=1;whiteSpace=wrap;" vertex="1" parent="1">
          <mxGeometry x="740" y="210" width="110" height="50" as="geometry" />
        </mxCell>
        <mxCell id="nESHbapqI25ROE8QuuqQ-15" value="" style="endArrow=none;html=1;rounded=0;entryX=0;entryY=0.75;entryDx=0;entryDy=0;" edge="1" parent="1" target="nESHbapqI25ROE8QuuqQ-9">
          <mxGeometry width="50" height="50" relative="1" as="geometry">
            <mxPoint x="500" y="100" as="sourcePoint" />
            <mxPoint x="560" y="230" as="targetPoint" />
          </mxGeometry>
        </mxCell>
        <mxCell id="nESHbapqI25ROE8QuuqQ-16" value="" style="endArrow=none;html=1;rounded=0;entryX=-0.018;entryY=0.64;entryDx=0;entryDy=0;entryPerimeter=0;" edge="1" parent="1" target="nESHbapqI25ROE8QuuqQ-10">
          <mxGeometry width="50" height="50" relative="1" as="geometry">
            <mxPoint x="500" y="100" as="sourcePoint" />
            <mxPoint x="660" y="180" as="targetPoint" />
          </mxGeometry>
        </mxCell>
        <mxCell id="nESHbapqI25ROE8QuuqQ-18" value="visitor[0].Reserve()" style="text;html=1;strokeColor=none;fillColor=none;align=center;verticalAlign=middle;whiteSpace=wrap;rounded=0;" vertex="1" parent="1">
          <mxGeometry x="550" y="70" width="60" height="30" as="geometry" />
        </mxCell>
        <mxCell id="nESHbapqI25ROE8QuuqQ-19" value="visitor[0].Reserve()" style="text;html=1;strokeColor=none;fillColor=none;align=center;verticalAlign=middle;whiteSpace=wrap;rounded=0;rotation=10;" vertex="1" parent="1">
          <mxGeometry x="560" y="110" width="60" height="30" as="geometry" />
        </mxCell>
        <mxCell id="nESHbapqI25ROE8QuuqQ-20" value="1" style="text;html=1;align=center;verticalAlign=middle;resizable=0;points=[];autosize=1;strokeColor=none;fillColor=none;" vertex="1" parent="1">
          <mxGeometry x="685" y="68" width="30" height="30" as="geometry" />
        </mxCell>
        <mxCell id="nESHbapqI25ROE8QuuqQ-21" value="1" style="text;html=1;align=center;verticalAlign=middle;resizable=0;points=[];autosize=1;strokeColor=none;fillColor=none;" vertex="1" parent="1">
          <mxGeometry x="715" y="120" width="30" height="30" as="geometry" />
        </mxCell>
        <mxCell id="nESHbapqI25ROE8QuuqQ-23" value="visitor[4].Buy()" style="text;html=1;strokeColor=none;fillColor=none;align=center;verticalAlign=middle;whiteSpace=wrap;rounded=0;rotation=35;" vertex="1" parent="1">
          <mxGeometry x="560" y="160" width="60" height="30" as="geometry" />
        </mxCell>
        <mxCell id="nESHbapqI25ROE8QuuqQ-25" value="" style="endArrow=none;html=1;rounded=0;entryX=-0.055;entryY=0.64;entryDx=0;entryDy=0;entryPerimeter=0;" edge="1" parent="1" target="nESHbapqI25ROE8QuuqQ-8">
          <mxGeometry width="50" height="50" relative="1" as="geometry">
            <mxPoint x="500" y="100" as="sourcePoint" />
            <mxPoint x="560" y="230" as="targetPoint" />
          </mxGeometry>
        </mxCell>
        <mxCell id="nESHbapqI25ROE8QuuqQ-26" value="" style="endArrow=diamondThin;endFill=0;endSize=24;html=1;rounded=0;entryX=1.009;entryY=0.64;entryDx=0;entryDy=0;entryPerimeter=0;" edge="1" parent="1" target="nESHbapqI25ROE8QuuqQ-3">
          <mxGeometry width="160" relative="1" as="geometry">
            <mxPoint x="500" y="100" as="sourcePoint" />
            <mxPoint x="620" y="260" as="targetPoint" />
          </mxGeometry>
        </mxCell>
        <mxCell id="nESHbapqI25ROE8QuuqQ-28" value="1" style="text;html=1;align=center;verticalAlign=middle;resizable=0;points=[];autosize=1;strokeColor=none;fillColor=none;" vertex="1" parent="1">
          <mxGeometry x="700" y="200" width="30" height="30" as="geometry" />
        </mxCell>
        <mxCell id="nESHbapqI25ROE8QuuqQ-29" value="" style="endArrow=diamondThin;endFill=1;endSize=24;html=1;rounded=0;entryX=0.564;entryY=1.06;entryDx=0;entryDy=0;entryPerimeter=0;" edge="1" parent="1" target="nESHbapqI25ROE8QuuqQ-1">
          <mxGeometry width="160" relative="1" as="geometry">
            <mxPoint x="132" y="360" as="sourcePoint" />
            <mxPoint x="620" y="260" as="targetPoint" />
          </mxGeometry>
        </mxCell>
        <mxCell id="nESHbapqI25ROE8QuuqQ-30" value=":Seat" style="html=1;whiteSpace=wrap;" vertex="1" parent="1">
          <mxGeometry x="90" y="360" width="110" height="50" as="geometry" />
        </mxCell>
        <mxCell id="nESHbapqI25ROE8QuuqQ-35" value=":Seat" style="html=1;whiteSpace=wrap;" vertex="1" parent="1">
          <mxGeometry x="100" y="370" width="110" height="50" as="geometry" />
        </mxCell>
        <mxCell id="nESHbapqI25ROE8QuuqQ-36" value=":Seat" style="html=1;whiteSpace=wrap;" vertex="1" parent="1">
          <mxGeometry x="110" y="380" width="110" height="50" as="geometry" />
        </mxCell>
        <mxCell id="nESHbapqI25ROE8QuuqQ-37" value=":Seat" style="html=1;whiteSpace=wrap;" vertex="1" parent="1">
          <mxGeometry x="120" y="390" width="110" height="50" as="geometry" />
        </mxCell>
        <mxCell id="nESHbapqI25ROE8QuuqQ-38" value=":Seat&lt;br&gt;Free : SeatState" style="html=1;whiteSpace=wrap;" vertex="1" parent="1">
          <mxGeometry x="140" y="420" width="110" height="50" as="geometry" />
        </mxCell>
        <mxCell id="nESHbapqI25ROE8QuuqQ-39" value=":Seat&lt;br&gt;Reserved : SeatState" style="html=1;whiteSpace=wrap;" vertex="1" parent="1">
          <mxGeometry x="140" y="480" width="110" height="50" as="geometry" />
        </mxCell>
        <mxCell id="nESHbapqI25ROE8QuuqQ-40" value="*" style="text;html=1;align=center;verticalAlign=middle;resizable=0;points=[];autosize=1;strokeColor=none;fillColor=none;" vertex="1" parent="1">
          <mxGeometry x="130" y="340" width="30" height="30" as="geometry" />
        </mxCell>
        <mxCell id="nESHbapqI25ROE8QuuqQ-42" value="&lt;div&gt;:Seat&lt;/div&gt;Sold : SeatState" style="html=1;whiteSpace=wrap;" vertex="1" parent="1">
          <mxGeometry x="140" y="600" width="110" height="50" as="geometry" />
        </mxCell>
        <mxCell id="nESHbapqI25ROE8QuuqQ-43" value=":Seat&lt;br&gt;Reserved : SeatState" style="html=1;whiteSpace=wrap;" vertex="1" parent="1">
          <mxGeometry x="140" y="540" width="110" height="50" as="geometry" />
        </mxCell>
      </root>
    </mxGraphModel>
  </diagram>
</mxfile>
